<svg id="visual" viewBox="0 0 900 600" width="900" height="600" xmlns="http://www.w3.org/2000/svg" xmlns:xlink="http://www.w3.org/1999/xlink" version="1.1"><rect x="0" y="0" width="900" height="600" fill="#021e2c"></rect><path d="M651 600L642.2 585.7C633.3 571.3 615.7 542.7 636.3 514.2C657 485.7 716 457.3 716.5 428.8C717 400.3 659 371.7 646.5 343C634 314.3 667 285.7 672.5 257C678 228.3 656 199.7 659.8 171.2C663.7 142.7 693.3 114.3 700.3 85.8C707.3 57.3 691.7 28.7 683.8 14.3L676 0L900 0L900 14.3C900 28.7 900 57.3 900 85.8C900 114.3 900 142.7 900 171.2C900 199.7 900 228.3 900 257C900 285.7 900 314.3 900 343C900 371.7 900 400.3 900 428.8C900 457.3 900 485.7 900 514.2C900 542.7 900 571.3 900 585.7L900 600Z" fill="#063170" stroke-linecap="round" stroke-linejoin="miter"></path></svg>